<svg xmlns="http://www.w3.org/2000/svg" xmlns:xlink="http://www.w3.org/1999/xlink" width="500" zoomAndPan="magnify" viewBox="0 0 375 374.999991" height="500" preserveAspectRatio="xMidYMid meet" version="1.0"><defs><clipPath id="c998f69ca7"><path d="M 187.5 0 C 83.945312 0 0 83.945312 0 187.5 C 0 291.054688 83.945312 375 187.5 375 C 291.054688 375 375 291.054688 375 187.5 C 375 83.945312 291.054688 0 187.5 0 Z M 187.5 0 " clip-rule="nonzero"/></clipPath><clipPath id="f694882de5"><path d="M 124.6875 54.5 L 249.9375 54.5 L 249.9375 320.75 L 124.6875 320.75 Z M 124.6875 54.5 " clip-rule="nonzero"/></clipPath></defs><g clip-path="url(#c998f69ca7)"><rect x="-37.5" width="450" fill="#999999" y="-37.499999" height="449.999989" fill-opacity="1"/></g><g clip-path="url(#f694882de5)"><path fill="#ffffff" d="M 221.042969 98.707031 L 249.9375 98.707031 L 249.9375 54.972656 L 213.039062 54.972656 L 213.039062 55.140625 C 164.53125 56.925781 154.527344 84.203125 153.695312 113.042969 L 153.582031 113.042969 L 153.582031 143.386719 L 124.6875 143.386719 L 124.6875 187.175781 L 153.582031 187.175781 L 153.582031 320.277344 L 205.429688 320.277344 L 205.429688 187.175781 L 242.601562 187.175781 L 249.9375 143.386719 L 205.429688 143.386719 L 205.429688 116.222656 C 205.429688 106.570312 211.875 98.707031 221.042969 98.707031 Z M 221.042969 98.707031 " fill-opacity="1" fill-rule="nonzero"/></g></svg>