<svg xmlns="http://www.w3.org/2000/svg" xmlns:xlink="http://www.w3.org/1999/xlink" width="500" zoomAndPan="magnify" viewBox="0 0 375 374.999991" height="500" preserveAspectRatio="xMidYMid meet" version="1.0"><defs><clipPath id="cce8634b1a"><path d="M 187.5 0 C 83.945312 0 0 83.945312 0 187.5 C 0 291.054688 83.945312 375 187.5 375 C 291.054688 375 375 291.054688 375 187.5 C 375 83.945312 291.054688 0 187.5 0 Z M 187.5 0 " clip-rule="nonzero"/></clipPath><clipPath id="2d7fb73f73"><path d="M 72.171875 72.316406 L 303 72.316406 L 303 302.566406 L 72.171875 302.566406 Z M 72.171875 72.316406 " clip-rule="nonzero"/></clipPath></defs><g clip-path="url(#cce8634b1a)"><rect x="-37.5" width="450" fill="#999999" y="-37.499999" height="449.999989" fill-opacity="1"/></g><g clip-path="url(#2d7fb73f73)"><path fill="#ffffff" d="M 259.613281 72.375 L 115.378906 72.375 C 91.597656 72.375 72.253906 91.71875 72.253906 115.496094 L 72.253906 259.730469 C 72.253906 283.507812 91.597656 302.851562 115.378906 302.851562 L 259.613281 302.851562 C 283.394531 302.851562 302.738281 283.507812 302.738281 259.730469 L 302.738281 115.496094 C 302.734375 91.71875 283.390625 72.375 259.613281 72.375 Z M 115.378906 85.992188 L 259.613281 85.992188 C 275.882812 85.992188 289.121094 99.226562 289.121094 115.496094 L 289.121094 180.804688 L 249.539062 180.804688 C 248.363281 170.042969 244.441406 160.105469 238.492188 151.6875 C 238.527344 151.6875 238.558594 151.691406 238.589844 151.691406 C 252.355469 151.691406 263.554688 140.492188 263.554688 126.726562 C 263.554688 112.960938 252.355469 101.761719 238.589844 101.761719 C 224.824219 101.761719 213.625 112.960938 213.625 126.726562 C 213.625 128.230469 213.78125 129.699219 214.039062 131.128906 C 205.980469 127.328125 196.980469 125.191406 187.496094 125.1875 C 155.378906 125.191406 128.859375 149.578125 125.453125 180.804688 L 85.871094 180.804688 L 85.871094 115.496094 C 85.871094 99.226562 99.105469 85.992188 115.378906 85.992188 Z M 236.296875 187.613281 C 236.296875 214.519531 214.402344 236.414062 187.492188 236.414062 C 160.585938 236.414062 138.691406 214.519531 138.691406 187.613281 C 138.691406 160.707031 160.585938 138.808594 187.492188 138.804688 C 214.402344 138.808594 236.296875 160.707031 236.296875 187.613281 Z M 227.242188 126.726562 C 227.242188 120.46875 232.332031 115.378906 238.589844 115.378906 C 244.847656 115.378906 249.9375 120.46875 249.9375 126.726562 C 249.9375 132.984375 244.847656 138.074219 238.589844 138.074219 C 232.332031 138.074219 227.242188 132.984375 227.242188 126.726562 Z M 259.613281 289.230469 L 115.378906 289.230469 C 99.109375 289.230469 85.871094 275.996094 85.871094 259.726562 L 85.871094 194.421875 L 125.453125 194.421875 C 128.859375 225.644531 155.378906 250.03125 187.492188 250.03125 C 219.609375 250.03125 246.128906 225.644531 249.535156 194.421875 L 289.117188 194.421875 L 289.117188 259.726562 C 289.117188 275.996094 275.882812 289.230469 259.613281 289.230469 Z M 259.613281 289.230469 " fill-opacity="1" fill-rule="nonzero"/></g><path fill="#ffffff" d="M 157.808594 260.09375 C 150.636719 257.152344 143.949219 253.160156 137.921875 248.226562 C 130.378906 242.050781 124.125 234.632812 119.332031 226.175781 C 117.480469 222.90625 113.324219 221.757812 110.054688 223.613281 C 106.78125 225.46875 105.632812 229.621094 107.488281 232.894531 C 113.113281 242.816406 120.449219 251.519531 129.296875 258.761719 C 136.367188 264.550781 144.222656 269.238281 152.644531 272.691406 C 153.492188 273.035156 154.363281 273.203125 155.226562 273.203125 C 157.90625 273.203125 160.449219 271.609375 161.527344 268.972656 C 162.953125 265.496094 161.289062 261.519531 157.808594 260.09375 Z M 157.808594 260.09375 " fill-opacity="1" fill-rule="nonzero"/></svg>