<svg xmlns="http://www.w3.org/2000/svg" xmlns:xlink="http://www.w3.org/1999/xlink" width="500" zoomAndPan="magnify" viewBox="0 0 375 374.999991" height="500" preserveAspectRatio="xMidYMid meet" version="1.0"><defs><clipPath id="9ec188ba3c"><path d="M 187.5 0 C 83.945312 0 0 83.945312 0 187.5 C 0 291.054688 83.945312 375 187.5 375 C 291.054688 375 375 291.054688 375 187.5 C 375 83.945312 291.054688 0 187.5 0 Z M 187.5 0 " clip-rule="nonzero"/></clipPath><clipPath id="d037ad4fcc"><path d="M 58.699219 104.285156 L 315.949219 104.285156 L 315.949219 270.785156 L 58.699219 270.785156 Z M 58.699219 104.285156 " clip-rule="nonzero"/></clipPath></defs><g clip-path="url(#9ec188ba3c)"><rect x="-37.5" width="450" fill="#999999" y="-37.499999" height="449.999989" fill-opacity="1"/></g><g clip-path="url(#d037ad4fcc)"><path fill="#ffffff" d="M 102.546875 104.285156 C 78.285156 104.285156 58.75 122.554688 58.75 145.25 L 58.75 229.734375 C 58.75 252.429688 78.285156 270.699219 102.546875 270.699219 L 272.433594 270.699219 C 296.699219 270.699219 316.230469 252.429688 316.230469 229.734375 L 316.230469 145.25 C 316.230469 122.554688 296.699219 104.285156 272.433594 104.285156 Z M 154.804688 137.117188 L 241.167969 186.675781 L 242.089844 187.433594 L 155.984375 237.445312 L 154.867188 237.867188 L 154.609375 138.292969 Z M 154.804688 137.117188 " fill-opacity="1" fill-rule="nonzero"/></g></svg>